<?xml version="1.0" encoding="UTF-8"?>
<svg id="Layer_2" data-name="Layer 2" xmlns="http://www.w3.org/2000/svg" viewBox="0 0 1117.74 968.56">
  <defs>
    <style>
      .cls-1 {
        fill: #004537;
      }

      .cls-2 {
        fill: #00a99d;
      }

      .cls-3 {
        fill: #006837;
      }

      .cls-4 {
        fill: #008571;
      }

      .cls-5 {
        fill: #6a210b;
      }

      .cls-6 {
        fill: #eae8e5;
      }

      .cls-7 {
        fill: #e6e6e6;
      }

      .cls-8 {
        fill: #fff;
      }

      .cls-9 {
        fill: #fffcf8;
      }

      .cls-10 {
        fill: #fff3e0;
      }

      .cls-11 {
        fill: #fceeaa;
      }

      .cls-12 {
        fill: #999;
      }

      .cls-13 {
        fill: #b3b3b3;
      }

      .cls-14, .cls-15 {
        fill: #736357;
      }

      .cls-16 {
        fill: #cfc081;
      }

      .cls-17 {
        fill: #bfb6a8;
      }

      .cls-18 {
        fill: #ccc;
      }

      .cls-19, .cls-20 {
        fill: #c7b299;
      }

      .cls-21 {
        fill: #0ac4b2;
      }

      .cls-22 {
        fill: #1a1a1a;
      }

      .cls-23 {
        fill: #9b9061;
      }

      .cls-24 {
        fill: #28210b;
      }

      .cls-15 {
        stroke: #534741;
      }

      .cls-15, .cls-20, .cls-25, .cls-26, .cls-27 {
        stroke-width: 2px;
      }

      .cls-15, .cls-20, .cls-25, .cls-26, .cls-27, .cls-28 {
        stroke-miterlimit: 10;
      }

      .cls-20 {
        stroke: #736357;
      }

      .cls-25, .cls-26, .cls-28 {
        fill: none;
      }

      .cls-25, .cls-27 {
        stroke: #000;
      }

      .cls-26 {
        stroke: #c7b299;
      }

      .cls-28 {
        stroke: #008571;
        stroke-width: .5px;
      }
    </style>
  </defs>
  <g id="scene1">
    <g id="scene__telephone">
      <g id="table">
        <ellipse id="table__base-surface" class="cls-11" cx="285.37" cy="853.74" rx="184.2" ry="36.25"/>
        <path id="table__base-height" class="cls-16" d="M101.17,853.74v26.66s163.09,66.26,368.4,0v-26.66s-162.08,82.95-368.4,0"/>
        <path id="table__leg" class="cls-23" d="M301.3,849.18c-2.29,1.43-8.13,4.64-16.22,4.56-7.75-.07-13.35-3.13-15.64-4.56-.02,0-.12,0-.21-.08-.05-.05-.09-.12-.09-.21v-269.55c0-.16,.13-.29,.29-.29h31.86c.16,0,.29,.13,.29,.29v269.55c0,.16-.13,.29-.29,.29Z"/>
        <ellipse id="table__top-base-surface" class="cls-11" cx="285.37" cy="530.11" rx="285.37" ry="33.08"/>
        <path id="table__top-base-height" class="cls-16" d="M0,530.11v24.33s252.66,60.46,570.74,0v-24.33s-251.11,75.69-570.74,0"/>
      </g>
      <g id="telephone">
        <g id="telephone__handle">
          <path class="cls-21" d="M189.93,435.74s-8.76,15.8-6.02,28.55,6.02,11.36,6.02,11.36c6.73,.56,12.24,0,16.12-.65,1.75-.3,5.68-1.44,13.55-3.74,7.37-2.15,10.1-3.1,13.07-5.41,2.36-1.84,3.94-3.8,4.89-5.16,.08-.98,.11-2.09-.03-3.29-.24-2.04-.92-4.89-2.7-8.07,0,0,.55-8.04,10.67-9.98,0,0,56.33-8.02,70.31-1.93,.39,.35,1.34,1.3,1.76,2.87,.46,1.76-.04,3.21-.23,3.68-.68,.19-1.39,.47-2.1,.88-3.88,2.25-4.9,6.78-5.15,8.08,3.87,2.15,8.58,4.34,14.08,6.13,11.02,3.58,20.84,4.1,27.82,3.85,2.16-.5,4.33-1.01,6.49-1.51,.35-1.39,.75-3.49,.75-6.06,0-1.6-.15-2.82-.25-3.53-1.31-9.69-1.96-14.54-4.96-18.34-.95-1.21-2.67-3.03-5.6-4.64-9.04-3.26-21.61-7-36.95-9.15-5.55-.78-20.69-2.63-44.07-.83-18.12,1.4-45.14,5.3-77.46,16.91Z"/>
          <path class="cls-28" d="M183.9,464.29s31.48,5.54,50.91-14.97"/>
          <path class="cls-28" d="M317.33,443.97c4.34,2.74,11.98,6.77,22.29,8.29,8.04,1.19,14.81,.42,19.34-.46"/>
        </g>
        <g id="telephone__body">
          <path class="cls-2" d="M201.59,475.37l-3.84,21.66s80.95,40.09,85.11,37.85c0,0,105.59-8.32,104.31-13.12v-12.48s-25.92-45.44-49.92-57.91c0,0-11.52-4.8-19.84-5.44,0,0-2.88-20.48-8.64-19.52,0,0-6.08-.96-9.28,1.6l-.96,7.68c-6.5-.17-12.99-.34-19.49-.51-.1,1.26-.21,2.53-.31,3.79-5.72,.26-11.44,.52-17.16,.77-.02-1.12-.21-3.33-1.56-5.65-.9-1.55-1.99-2.58-2.76-3.2h-8.64s5.44,16.96,3.52,19.84c0,0-19.2,19.52-20.16,23.04,0,0-2.24,3.2-5.76,3.84,0,0-6.08-2.24-9.28-5.76,0,0-9.92,3.84-15.36,3.52Z"/>
          <path class="cls-4" d="M248.63,430.9s-3.9-1.1-2.96,10.41l-3.57-1.54c-1.04,.47-2.68,1.39-4.19,3.07-2.14,2.38-2.81,4.95-3.05,6.15,.24,.75,.58,1.88,.95,3.27,.97,3.6,1.68,7.24,1.68,7.24,0,0-.55,8.27-20.55,12.35,.8,.87,1.83,1.84,3.13,2.77,2.3,1.64,4.53,2.51,6.15,2.99,3.32-1.04,4.92-2.58,5.76-3.84,.29-.43,.26-.5,.88-1.49,.82-1.33,1.89-2.88,3.27-4.52,1.05-1.25,1.62-1.77,3.63-3.92,2.48-2.65,3.24-3.61,5.04-5.58,1.68-1.85,4.13-4.45,7.34-7.52,.44-1.3,.8-2.8,.97-4.47,.72-7.3-2.83-13.04-4.49-15.37Z"/>
        </g>
        <g id="telephone__feets">
          <path class="cls-4" d="M197.75,497.04s-3.04,8.27,13.7,6.71l-13.7-6.71Z"/>
          <path class="cls-4" d="M270.08,530.86v4.12s3.21,5.96,11.57,4.95c0,0,13.17-.51,21.28-2.53,0,0,1.98-3.21,.79-4.26l-20.86,1.76-12.79-4.03Z"/>
          <path class="cls-4" d="M361.08,526.9s4.08,7.08,25.32,0c0,0,.77-2.2,.77-6.2,0,0-1.86,4.39-26.1,6.2Z"/>
        </g>
        <g id="telephone__outer-circle">
          <path class="cls-17" d="M263.01,464.64c-1.06,1.94-2.7,5.7-1.77,9.89,.73,3.3,2.75,5.42,3.67,6.39,20.46,21.71,57.46,22.49,57.46,22.49,13.03,0,26.5,.56,34.23-8.91,3.62-4.44,4.78-9.57,5.17-13.26"/>
          <path class="cls-10" d="M359.34,473.19c2.34,3.82,2.48,6.66,2.43,8.06-.19,4.88-3.37,8.32-4.63,9.69-10.81,11.71-34.47,9.33-40.73,8.7-8.68-.87-15.6-2.97-19.5-4.18-4.56-1.41-9.03-2.82-14.39-5.8-5.93-3.3-10.23-7.02-13-9.75-1.69-1.4-6.47-5.75-6.73-12.3-.06-1.56,.16-2.67,.22-2.98,1.44-6.91,9.02-10.45,12.08-11.88,4.34-2.03,7.94-2.52,13.23-3.25,3.56-.49,7.78-.82,12.77-.7,13.46,.33,24.33,3.72,27.15,4.64,4.14,1.35,23.76,7.73,31.1,19.73Z"/>
        </g>
        <g id="telephone__inner-circle">
          <path class="cls-6" d="M280.26,465.58c-.73,1.28-1.85,3.75-1.21,6.51,.5,2.17,1.88,3.57,2.51,4.21,14,14.3,39.31,14.81,39.31,14.81,8.91,0,18.13,.37,23.42-5.87,2.48-2.93,3.27-6.3,3.54-8.73"/>
          <path class="cls-9" d="M346.16,471.21c1.6,2.52,1.7,4.39,1.66,5.31-.13,3.21-2.31,5.48-3.17,6.38-7.39,7.71-23.58,6.15-27.86,5.73-5.94-.58-10.67-1.96-13.34-2.75-3.12-.93-6.18-1.85-9.84-3.82-4.06-2.18-7-4.62-8.89-6.42-1.16-.92-4.43-3.79-4.6-8.1-.04-1.03,.11-1.76,.15-1.96,.98-4.55,6.17-6.88,8.27-7.82,2.97-1.33,5.43-1.66,9.05-2.14,2.43-.32,5.32-.54,8.73-.46,9.21,.22,16.64,2.45,18.58,3.06,2.83,.89,16.25,5.09,21.28,12.99Z"/>
        </g>
        <g id="telephone__buttons">
          <ellipse class="cls-10" cx="322.75" cy="460.46" rx="1.97" ry="6.4" transform="translate(-196.34 676.66) rotate(-77.58)"/>
          <ellipse class="cls-10" cx="308.08" cy="457.58" rx="1.97" ry="6.4" transform="translate(-180.88 712.95) rotate(-83.62)"/>
          <ellipse class="cls-10" cx="296.12" cy="459.56" rx="1.97" ry="6.4" transform="translate(-174.87 737.15) rotate(-87.72)"/>
          <ellipse class="cls-10" cx="288.89" cy="464.05" rx="2.56" ry="6.4" transform="translate(-186.3 734.23) rotate(-87.72)"/>
          <ellipse class="cls-10" cx="288.61" cy="471.01" rx="2.56" ry="6.4" transform="translate(-193.52 740.64) rotate(-87.72)"/>
          <ellipse class="cls-10" cx="293.27" cy="477.11" rx="2.56" ry="6.4" transform="translate(-195.14 751.15) rotate(-87.72)"/>
          <ellipse class="cls-10" cx="304.97" cy="482.23" rx="2.56" ry="6.4" transform="translate(-189.02 767.75) rotate(-87.72)"/>
          <ellipse class="cls-10" cx="318.68" cy="484.8" rx="2.56" ry="6.4" transform="translate(-178.43 783.93) rotate(-87.72)"/>
          <ellipse class="cls-10" cx="331.98" cy="483.88" rx="2.56" ry="6.4" transform="translate(-201.73 727.8) rotate(-80.11)"/>
          <ellipse class="cls-10" cx="338.45" cy="478.35" rx="2.56" ry="6.4" transform="translate(-201.49 706.03) rotate(-77.58)"/>
        </g>
        <g id="telephone__numbers">
          <path class="cls-4" d="M273.81,470.83c-.67,.33-1.34,.65-2,.98-.03,.02-.18,.08-.15,.15l.36,.88c.06,.15,.48,0,.57-.05,.23-.1,.44-.21,.66-.32,.16-.08,.33-.16,.51-.17,.39-.01,.8,.3,.8,.72,0,.16-.08,.32-.2,.43-.05,.04-.1,.08-.15,.1,0,0-.09,.04-.06,.03-.01,0-.15,.05-.09,.03-.18,.05-.26,.07-.48,.1s-.4,.01-.59-.09c-.13-.07-.34,0-.47,.04-.03,.01-.33,.15-.22,.21,.43,.24,.96,.16,1.41,.06,.44-.09,.9-.22,1.25-.5,.29-.24,.41-.64,.19-.97-.28-.43-.81-.49-1.28-.43-.63,.09-1.14,.42-1.72,.67l.57-.05-.36-.88-.15,.15c.67-.33,1.34-.65,2-.98,.07-.03,.24-.14,.09-.19s-.38,.03-.51,.09h0Z"/>
          <path class="cls-4" d="M282.22,481.45c-.78-.18-1.68,.18-2.05,.91s0,1.66,.69,2.06c.77,.44,1.92,.38,2.54-.3,.27-.3,.41-.77,.24-1.15-.16-.35-.49-.53-.85-.58-.47-.07-.96,.11-1.29,.45-.31,.32-.45,.78-.44,1.22,0,.18,.17,.23,.33,.22,.13-.01,.41-.11,.4-.28-.01-.28,.04-.57,.19-.82,.06-.1,.14-.18,.22-.24,.06-.05,.03-.02,.02-.01,0,0,.11-.05,.04-.02,.02,0,.05-.01,.07-.02,.04,0,.05-.01,0,0,.02,0,.04,0,.05,0,.07,0,.15,0,.24,.04,.08,.03,.17,.09,.23,.16,.17,.21,.15,.52,0,.75-.27,.44-.9,.44-1.35,.24-.53-.24-.86-.84-.75-1.42,.05-.26,.22-.47,.42-.61,.11-.07,.16-.09,.31-.13,.11-.03-.04,0,.03,0,.04,0,.09,0,.13,0-.02,0-.05,0,.02,0,.02,0,.11,.02,.1,.01,.18,.04,.39,0,.51-.14,.1-.12,.08-.29-.09-.33h0Z"/>
          <path class="cls-4" d="M295.46,490.25l1.28-1.66-.7,.04c-.04,.97,.3,1.93,.96,2.65,.17,.19,.86-.08,.67-.28-.6-.66-.94-1.56-.91-2.46,0-.14-.15-.16-.27-.16-.16,0-.33,.07-.43,.2l-1.28,1.66c-.11,.14,.09,.21,.2,.21,.17,0,.37-.06,.48-.2h0Z"/>
          <path class="cls-4" d="M316.68,494.81c-.16,.73,.33,1.51,1.09,1.61s1.78-.26,2.02-1.03c.1-.3,.07-.67-.17-.9-.13-.13-.31-.17-.49-.18-.27-.02-.55,0-.83,0-.53,0-1.06,0-1.59,0-.2,0-.49,.05-.67-.05-.14-.08-.19-.23-.2-.39,0-.16,.04-.35,.16-.46,.02-.02,.07-.05,.09-.07-.07,.02-.09,.02-.05,.02,.03,0,.06,0,.09,0,.11,0,.23,.03,.33,.06,.4,.12,.94,.47,.84,.95-.03,.15,.68,.04,.71-.13,.17-.89-1.1-1.24-1.76-1.15-.39,.06-.91,.22-1.08,.62-.11,.26-.09,.61,.16,.78,.16,.1,.36,.1,.54,.11,.29,0,.58,0,.87,0,.53,0,1.06,0,1.59,0,.21,0,.42-.01,.58,.14,.13,.12,.19,.3,.2,.47,.02,.35-.17,.7-.46,.89-.28,.18-.66-.01-.89-.22-.31-.29-.47-.76-.38-1.18,.03-.14-.67-.04-.71,.13h0Z"/>
          <path class="cls-4" d="M338.03,491.79c-.39-.08-.83-.1-1.21,.03s-.78,.44-.76,.89c.01,.4,.35,.7,.71,.81,.47,.15,.95,.05,1.34-.25,.42-.32,.66-.8,.87-1.27l-.68,.12c.6,.74,.87,1.7,.72,2.65-.06,.37,.68,.28,.73-.05,.16-1.03-.14-2.11-.8-2.92-.16-.2-.58-.11-.68,.12-.16,.35-.34,.77-.64,1.01-.02,.02-.04,.03-.07,.05-.04,.02-.05,.03-.03,.02-.02,0-.16,.07-.08,.05,0,0-.11,.02-.04,.01-.01,0-.14,0-.08,0-.15,0-.26-.05-.39-.15-.09-.07-.16-.2-.16-.31,0-.07,.02-.12,.06-.18-.03,.05,.08-.08,.01-.02,.01-.01,.12-.07,.05-.04,.03-.01,.06-.03,.09-.04-.08,.03,.05-.01,.07-.02,.04,0,.05,0,0,0,.02,0,.05,0,.07,0,.05,0,.1,0,.15,0,.12,0,.32,.02,.49,.05s.4-.06,.47-.22c.08-.17-.07-.28-.22-.31h0Z"/>
          <path class="cls-4" d="M350.89,484.95c-.36-.09-.77,0-1.1,.16-.28,.13-.53,.34-.67,.61-.28,.56,0,1.22,.45,1.58,.56,.45,1.37,.46,2.04,.31,.32-.07,.84-.19,.87-.6,.02-.29-.19-.61-.35-.84-.4-.57-.98-.98-1.65-1.17-.15-.04-.37,.03-.51,.09-.07,.03-.24,.14-.09,.18,.47,.13,.9,.4,1.24,.75,.17,.17,.31,.37,.43,.58,.1,.19,.28,.48,.18,.7-.01,.03-.1,.12-.01,.06,0,0,.07-.02-.02,0,.04,0-.04,0-.03,0-.12,.02-.25,.04-.37,.04-.26,0-.52-.06-.76-.18-.43-.22-.76-.65-.79-1.15-.02-.26,.07-.51,.24-.71,.07-.07,.16-.15,.23-.19-.05,.03,.05-.01,0,0,0,0-.06,.02-.06,.01,0-.01,.14,.02,.15,.02,.16,.04,.36-.03,.51-.09,.06-.03,.25-.14,.09-.18h0Z"/>
          <path class="cls-4" d="M274.95,461.2l-.03,1.45-.02,.72c0,.19-.07,.46,.13,.57,.25,.14,.6,0,.81-.16,.18-.14,.35-.31,.52-.46,.36-.32,.71-.65,1.07-.97,.12-.1,.08-.21-.07-.25-.54-.15-1.02-.54-1.28-1.03l-.7,.24c.64,.6,1.32,1.16,2.03,1.67,.14,.1,.33,.07,.48,0,.06-.03,.33-.19,.19-.29-.71-.51-1.39-1.07-2.03-1.67-.11-.1-.31-.06-.43-.02-.07,.02-.33,.14-.27,.26,.33,.62,.89,1.05,1.56,1.23l-.07-.25c-.27,.25-.55,.5-.82,.74-.13,.12-.27,.24-.4,.36-.06,.06-.13,.12-.19,.17-.04,.03-.08,.07-.11,.1-.06,.06-.06-.02,.11-.03h.17s.02,.01,.02-.04c0-.05,0-.09,0-.14v-.34c.01-.22,.02-.43,.02-.65l.03-1.32c0-.16-.19-.17-.31-.15-.1,.01-.41,.09-.41,.24h0Z"/>
          <path class="cls-4" d="M285.78,455.77c0-.07,0-.14,.03-.2,.02-.04,.02-.05,.05-.08,0,0,.07-.08,.03-.04,.04-.02,.04-.03,0,0,.04-.02,.04-.02,0,0,.04-.01,.04-.01,0,0h.03s-.03,0,0,0c-.03,0-.02,0,.02,0,.04,.02,.02,0,.05,.02,.15,.08,.16,.22,.25,.36,.16,.25,.52,.21,.75,.09,.06-.03,.11-.07,.17-.1-.03,.02-.02,.02,.01,0-.04,.01-.05,.02-.02,0,.03,0,.02,0-.02,0,.02,0,.04,0,.06,0-.07,0,.03,0,.05,0,.02,0,.02,0,0,0,.02,0,.04,.01,.06,.02,.04,.01,.02,0,.06,.03,.06,.04,.09,.07,.13,.13,.08,.1,.09,.24,.07,.36-.01,.07-.03,.11-.07,.17-.03,.04-.05,.07-.1,.1-.12,.08-.19,.26-.05,.35,.15,.1,.38,.04,.52-.05,.3-.2,.47-.55,.43-.91-.04-.34-.33-.59-.65-.67-.2-.05-.42-.05-.62,0-.12,.03-.21,.09-.32,.14-.04,.02-.01,0,0,0-.05,.04-.14,.01,.1,.02,.16,0,.13,.02,.09-.08-.15-.37-.55-.57-.95-.52-.44,.05-.91,.4-.91,.89,0,.17,.18,.23,.33,.22,.13-.01,.41-.11,.4-.28h0Z"/>
          <path class="cls-4" d="M303.32,453.18s-.06-.01-.07-.02c.05,.03,.05,.03,.03,.01,0,0-.02-.01-.03-.02,.03,.03,.04,.04,.02,.02,0,0-.01-.02-.02-.03,0,0-.01-.02-.02-.03,.02,.04,.02,.05,.01,.02,0,0-.03-.12-.03-.12,0,.04,0,.05,0,.02,0-.01,0-.02,0-.04,0-.02,0-.05,0-.07,.01-.08-.02,.03,0-.02,0-.02,.02-.04,.03-.07,.02-.06-.04,.05,0,0,0,0,.01-.02,.02-.03,.02-.03,.02-.02-.02,.02,0,0,.02-.02,.03-.02,.03-.02,.02-.01-.03,.02,.01,0,.03-.01,.04-.02-.06,.02-.06,.02-.02,.01,.04,0,.03,0-.03,0,.02,0,.03,0,.05,0,.07,0-.08,0,.01,0,.01,0,.02,0,.04,0,.04,0,.03,0-.01,0,.02,0,.07,.03,.09,.03,.03,.02,.03,.01,0,0,.01,0,.03,.02,.04,.03,.03,.02,.06,.04,.08,.06,.01,0,.08,.08,.04,.03,.02,.02,.03,.04,.05,.06,.02,.03,.04,.05,.06,.08,0,.01,.05,.09,.04,.06,.14,.29,.14,.59,.15,.88,0,.32,.42,.28,.61,.15,.22-.15,.43-.3,.65-.45,.13-.09,.18-.29,.03-.39-.16-.11-.37-.06-.52,.04-.22,.15-.43,.3-.65,.45l.61,.15c0-.32-.02-.65-.13-.94s-.32-.55-.62-.7c-.54-.26-1.36,0-1.38,.68,0,.28,.14,.55,.42,.63,.17,.05,.4,.02,.51-.14,.09-.12,.08-.32-.1-.37h0Z"/>
          <path class="cls-4" d="M322.89,456.35c-.04-.44-.22-.84-.5-1.17l-.63,.28c.75,.24,1.48,.57,2.15,.99,.13,.08,.34,.03,.47-.03,.04-.02,.33-.16,.21-.23-.7-.43-1.46-.78-2.24-1.03-.14-.05-.33,0-.47,.07-.07,.03-.25,.12-.17,.21,.26,.31,.42,.7,.46,1.11,.02,.17,.75,.03,.72-.19h0Z"/>
        </g>
      </g>
    </g>
    <g id="scene__character">
      <path id="chair__inner-layer" class="cls-1" d="M425.31,696.78c23.29,1.47,61.38,1,105.3-13.28,42.67-13.87,73.12-35,91.02-49.56,57.54-1.54,115.09-3.08,172.63-4.63,1.61-12.14,4.39-29.08,9.42-48.95,13.05-51.52,24.94-83.27,49.23-103.57,18.85-15.75,29.35-13.4,56.27-35.18,20.71-16.75,34.53-34.35,43.1-46.87,12.8-28.07,41.33-101.23,20.51-189.01-5.87-24.75-30.53-128.71-117.92-164.96-21.68-8.99-41.73-11.54-56.15-12.13-25.58-1.05-44.99,6.1-56.83,10.2-7.27,2.51-25.71,9.38-46.44,23.53-45.32,30.94-66.55,72.77-76.13,92.21-12,24.35-18.1,46.39-21.75,59.58-4.95,17.88-7.34,31.44-10.4,49-9.35,53.83-5.24,61.98-15.26,88.39-3.99,10.5-10.4,26.98-24.8,43.88-15.16,17.8-33.93,29.92-36.88,31.8-11.47,7.3-20.72,11.18-33.97,23.03-2.69,2.41-7.86,7.07-13.15,13.42-4.79,5.75-12.5,16.29-23.81,48.83-5.57,16.01-10.43,30.01-14.29,50.16-4.43,23.16-4.95,40.9-5.28,54.65-.49,20.21,.31,47.39,5.58,79.45Z"/>
      <g id="chair__inner--bottom">
        <path class="cls-2" d="M598.17,580.08l-74.81,33.8,380.64,11.22c10.55-10.92,21.1-21.83,31.65-32.75-112.49-4.09-224.99-8.17-337.48-12.26Z"/>
        <polygon class="cls-22" points="523.36 613.88 523.36 630.27 903.95 642.16 904 625.09 523.36 613.88"/>
        <path class="cls-22" d="M903.95,642.16c10.21-10.84,20.42-21.68,30.64-32.52,.36-5.77,.71-11.53,1.07-17.3-10.55,10.92-21.1,21.83-31.65,32.75"/>
      </g>
      <g id="chair__inner--top">
        <path class="cls-2" d="M663.46,311.98l306.52,3.89c15.33,.19,26.98,13.85,24.75,29.02l-33.14,225.8c-1.87,12.77-13.04,22.09-25.93,21.65l-330.2-11.19c-16.22-.55-27.76-16-23.67-31.71l56.82-218.5c2.93-11.28,13.19-19.11,24.85-18.96Z"/>
        <path class="cls-1" d="M986.48,322.27l-41.69,267.07s4.75,8.7,16.79-18.65l33.14-225.8s.5-12.18-8.24-22.62Z"/>
      </g>
      <ellipse id="chair__base-surface" class="cls-7" cx="779.12" cy="912.45" rx="259.44" ry="36.25"/>
      <path id="chair__base-height" class="cls-18" d="M519.68,912.45v26.66s229.7,66.26,518.88,0v-26.66s-228.29,82.95-518.88,0"/>
      <path id="chair__leg" class="cls-13" d="M795.34,907.89c-2.29,1.43-8.13,4.64-16.22,4.56-7.75-.07-13.35-3.13-15.64-4.56-.02,0-.12,0-.21-.08-.05-.05-.09-.12-.09-.21v-269.55c0-.16,.13-.29,.29-.29h31.86c.16,0,.29,.13,.29,.29v269.55c0,.16-.13,.29-.29,.29Z"/>
      <g id="clothes__underneath">
        <g id="clothes__collar">
          <path class="cls-5" d="M742.71,242.84c-13.38,3.03-24.36,5.54-29.12,15.03-2.51,5.02-2.35,10.2-1.86,13.64-2.69,2.51-3.66,6.3-2.48,9.61,1.52,4.26,5.82,5.48,6.2,5.58,10.9,2.89,20.53,5.22,22.01,5.27,11.35,.38,22.06,.68,37.51-1.55,0,0,13.86-2,23.6-9.06,1.28-.93,2.8-2.24,3.38-4.27,.54-1.93-.13-3.22-2.17-9.3-1.96-5.86-2.11-6.96-2.17-7.75-.3-3.71,.77-4.62,.31-6.82-.87-4.15-5.81-6.43-8.31-7.54-20.03-8.94-46.9-2.84-46.9-2.84Z"/>
          <ellipse class="cls-24" cx="755.44" cy="257.47" rx="35.96" ry="12.23" transform="translate(-15.71 51.8) rotate(-3.89)"/>
        </g>
        <path id="clothes__underneath-2" data-name="clothes__underneath" class="cls-5" d="M801.95,274.47l41.5,15.15-92.74,60.85-76.53-60.85c17.3-6.75,34.25-12.88,35.07-11.12,.18,.39-.58,.81-.59,1.56-.07,3.82,19.36,8.76,39.45,9.55,47.34,1.84,53.83-15.14,53.83-15.14Z"/>
      </g>
      <g id="character__neck">
        <path class="cls-10" d="M763.48,268.83c.09,0,.18,0,.27,0,2.04-.23,4.08-.53,6.1-.9,2.16-.61,4.29-1.41,6.42-2.16,1.15-4.64,2.23-10.36,2.84-17.1,0,0-22.98,12.16-40.61,8.15v12.88c8.13,0,16.32,.07,24.38-.78,.19-.06,.39-.1,.59-.09Z"/>
      </g>
      <path id="character__head" class="cls-10" d="M832.42,155.39c0,8.43-1.22,16.57-3.5,24.26,0,0,0,.03,0,.04-8.11,51.88-54.53,84.53-96.07,77.31-31.19-5.42-57.47-32.93-64.78-68.69-.01-.01-.01-.02-.01-.03-4.24-10.12-6.57-21.24-6.57-32.89,0-47.2,38.27-85.46,85.47-85.46s85.47,38.26,85.47,85.46Z"/>
      <g id="character__face">
        <ellipse class="cls-27" cx="702.11" cy="179.89" rx="7.16" ry="14.76"/>
        <path class="cls-26" d="M727.43,198.9s-11.03,7.02,0,7.35"/>
        <path class="cls-25" d="M703.74,164.07s-15.61,2.8-18.95-2.89"/>
        <path class="cls-25" d="M705.12,165.46s-15.63-2.7-16.83-9.18"/>
        <ellipse class="cls-27" cx="758.81" cy="179.89" rx="7.16" ry="14.76"/>
        <path class="cls-25" d="M760.45,164.07s-15.61,2.8-18.95-2.89"/>
        <path class="cls-25" d="M761.82,165.46s-15.63-2.7-16.83-9.18"/>
        <path class="cls-26" d="M716.5,224.85s10,18.45,21.87,0"/>
      </g>
      <g id="character__hair">
        <path id="character__hair-2" data-name="character__hair" d="M719.88,96.98c11.96,9.73,39.51,34.86,53.24,77.52,17.37,53.97,.95,99.68-4.3,112.77l44.08-29.28s7.08-15.11,3.78-26.92c0,0,12.75,10.86,8.5,19.83l15.58-15.11s51.46-140.72-79.1-173.3c0,0-54.79-5.19-74.02,18.42-8.32,8.69-19.81,22.76-27.73,42.5-11.88,29.6-2.87,39.91-13.43,89.77-3.77,17.78-15.07,58.07-15.37,58.49,0,0,0,0,0,0,.08,.19,13.23-5.33,34-14.17,.65-3.8,1.17-8.07,1.42-12.75,.23-4.28,.19-8.23,0-11.8,1.41,1.78,2.91,3.97,4.25,6.61,3.09,6.06,3.99,11.75,4.25,15.58,7.4-4.88,14.8-9.76,22.19-14.64-3.34-3.44-6.69-7.29-9.94-11.6-15.04-19.92-21.24-40.79-23.97-55.94,7.05-6.56,14.59-14.38,22.11-23.59,11.67-14.3,20.21-28.19,26.44-40.14"/>
      </g>
      <g id="character__ear">
        <path class="cls-10" d="M801.82,156.47c3.71,14.21,5.56,21.32,7.81,21.8,5.51,1.19,17.61-12.13,13.49-21.54-3.66-8.36-18.67-10.31-21.63-6.39-.89,1.18-.56,2.71,.33,6.13Z"/>
      </g>
      <g id="clothes__poncho">
        <path id="clother__poncho--lower-body" class="cls-19" d="M613.23,550.86c-5,4.55-12.24,12.56-16.19,24.42-1.08,3.23-1.76,6.29-2.19,9.09,10.89-3.91,26.33-8.68,45.27-12.02,40.79-7.2,73.14-3.41,90.55-1.24,15.2,1.9,35.39,5.47,58.62,12.67,7.13,1.98,16.48,5.75,25.35,13.2,1.14,.95,21.44,18.29,18.42,30.07-.18,.69-.51,1.64-.05,2.08,2.81,2.73,29.26-20.73,29.26-20.73,3.16-5.06,12.66-21.72,8.47-41.95-1.33-6.4-3.71-11.63-6.03-15.61"/>
        <path id="clothes__poncho--upper-body" class="cls-19" d="M898.57,488.22c-3.2,21.04-9.79,33-12.02,36.84-3.25,5.57-6.39,9.55-7.83,11.32-15.22,18.65-36.04,28.35-37.21,29.12l-224.61-14.48c-.07,0-.15,.01-.22,.01-.93,.02-2.39-.2-4.13-1.56,0,0-8.58-4.29-14.12-14.92-9.83-18.88,13.39-92.43,13.39-92.43,24.04-76.11,22.4-102.79,53.84-144.05,4.54-5.96,8.58-10.67,11.35-13.77,1.15-9.2,14.46-9.87,18.53-9.86,.34,.33,1.17,.03,1.17,.03,0,0-.43-.03-1.17-.03-.39-.36-.17-1.5,2.53-4.74,5.09-6.1,13.37-1.68,13.37-1.68l.02-1.49c.01-1.5,.27,4.99,.27,4.99-3.65,2.84-2.48,6.98-2.48,6.98l29.11,45.05s60.3-37.7,63.58-49.08l-2.17-6.67c.49-.57,1.34-1.45,2.59-2.16,1.79-1.01,3.94-1.42,15.26,1.19,4,.92,5.52,1.39,6.33,2.87,.92,1.68,.4,3.68,0,4.77,0,0,3.08-3.37,6.14-2.35,.33,.11,.7,.07,1.09,.16,3.56,.8,9.91,4.54,12.26,5.95,.26,.22,1.35,1.2,1.52,2.84,.23,2.19-1.36,3.64-1.52,3.78,1.1,.79,2.18,1.59,3.23,2.41,18.57,14.44,45.75,45.82,50.34,117.75,.92,6.61,6.7,49.41,1.56,83.21Z"/>
        <g id="clothes__poncho--armL">
          <path class="cls-14" d="M622.83,545.36c4.59-2.77,10.61-5.65,17.98-7.45,21.79-5.33,40.25,2.47,47.13,5.82,1.7-3.47,3.63-8.11,5.09-13.78,0,0,1.46-5.65,1.99-11.44,.46-5.01,3.47-37.68-15.66-50.48-5.92-3.96-12.39-4.98-15.35-5.24-4.44-.4-11.42-.35-18.32,3.22-13.29,6.87-17.18,22.09-20.7,35.84-2.3,9.01-4.93,24.18-2.16,43.51Z"/>
          <path class="cls-20" d="M610.73,445.71c-4.28,15.33-7.55,28.44-9.92,38.48-6.68,28.28-6.99,35.25-4.41,42.96,4.41,13.19,16.27,25.53,22.38,23.52,2.11-.7,3.32-3.05,4.05-5.3-1.46-8.09-2.67-20.63,.22-35.42,4.17-21.41,14.7-36.09,20.57-43.17,1-.47,2.48-1.11,4.3-1.71,1.4-.47,16.43-5.28,27.98,.5,9.77,4.89,13,15.33,16.13,25.42,.97,3.12,7.56,24.65-.4,45.18-1.36,3.51-3.66,8.32-3.14,8.61,.58,.31,4.55-5,7.2-10.81,.92-2.02,3.31-7.66,4.11-18.2,.21-2.78,1.1-16.33-4.11-34.35-2.17-7.48-3.3-11.38-6.48-16.25-2.23-3.41-7.99-11.93-19.37-16.14-10.38-3.84-19.67-1.84-23.39-.81,1.21-8.46,3.52-20.7,8.32-34.92,6.34-18.77,10.08-36.94,9.53-32.24"/>
          <g id="character__hands--left">
            <path class="cls-10" d="M641.19,468.51c-1.97,2.42-4.08,5.33-6.11,8.8,1.89,1.21,4.13,3.12,4.96,5.97,1.12,3.83-1.06,6.66,.6,9.14,1.28,1.92,3.92,2.22,5.99,2.44,15.74,1.62,22.12,1.44,22.12,1.44s7.28-.2,17.61-1.67c4.93-.7,7.86-1.33,9.36-3.7,1.5-2.38,.98-5.53-.14-8.11-.21-.47-.45-1.01-.8-1.62-4.12-7.17-15.95-12.35-15.95-12.35-4.39-1.98-13.67-6.07-24.14-6.01-5.24,.03-8.82,1.08-11.4,3.35-.26,.23-.76,.69-2.09,2.33Z"/>
          </g>
        </g>
        <g id="clothes__poncho--armR">
          <path class="cls-14" d="M750.8,558.13c4.49-1.38,9.55-2.65,15.12-3.6,10.83-1.85,20.48-1.96,28.3-1.44,2.1-5.21,11.71-30.52,.84-57.64-5.81-14.5-14-23.71-19.84-27.38-4.31-2.7-7.8-2.87-8.61-2.89-.48-.01-5.11-.08-9.02,2.63-5.47,3.81-8.07,12.09-6.42,20.73l-.37,69.58Z"/>
          <path class="cls-20" d="M891.57,514.69c-1.41,3.31-3.67,8.13-7.01,13.61-5.98,9.81-10.8,17.73-19.87,22.56-3.34,1.78-7.76,3.01-16.58,5.46-1.84,.51-7.16,1.96-13.26,3.54-2.78,.72-3.1,.79-4.78,1.24-5.22,1.41-6.87,2.03-10.58,2.92-1.25,.3-3.14,.72-5.49,1.14-1.09,.16-2.22,.31-3.37,.43-3.07,.33-5.98,.47-8.7,.48-5.41-1.31-9-3.28-9.44-5.55-.17-.94,.2-1.82,.6-2.47,2.33-5.46,16.47-40.04-1.25-70.75-4.98-8.63-11.25-14.85-16.83-19.21-3.12-.76-5.35-1.03-5.35-1.03-4.66-.54-8.91-1.04-12.18,.74-6.94,3.78-6.6,27.69-6.6,27.69,1.15,38.19,4.79,61.03-.08,62.65-.37,.12-1,.19-1.97-.31,.08-5.26,.1-13.25-.21-23-.74-23.29-1.6-34.25-1.6-34.25s-.77-11.86,1.31-28.71c.24-1.94,.88-4.75,2.8-7.37,1.92-2.61,4.32-3.92,5.59-4.57,5.34-2.71,31.5-14.25,67.46-29.52,2.82-8.47,5.65-16.93,8.47-25.4"/>
          <g id="character__hands--right">
            <path class="cls-10" d="M760.85,471.3c6.75-5.32,7.96-5.58,8.71-5.68,11.28-1.47,21.73,19.64,22.98,22.23h0s-1.16,1.51-1.5,2.01c-1.2,1.78-.74,4.03-.83,4.91-.43,4.48-2.09,9.07-5.62,11.86-4.52,3.57-10.9,3.36-16.6,2.53-6.52-.95-12.96-2.49-19.2-4.59-2.78-.94-5.78-2.21-7.05-4.87-.86-1.81-.87-3.85-.24-6.36,.92-3.7,3.49-9.55,19.33-22.05Z"/>
          </g>
        </g>
        <g id="clothes__outline">
          <path class="cls-14" d="M820.59,280.69c-8.33,13.16-19.54,24.45-32.64,32.88-3.74,2.41-7.63,4.57-11.63,6.5-1.3,.63-.16,2.57,1.14,1.94,14.35-6.91,27.15-16.98,37.23-29.31,2.83-3.46,5.45-7.09,7.85-10.87,.78-1.23-1.17-2.36-1.94-1.14h0Z"/>
          <path class="cls-14" d="M694.19,276.45c-1.54,9.26-.11,18.75,4.14,27.13,.66,1.29,2.6,.15,1.94-1.14-3.96-7.79-5.35-16.77-3.91-25.39,.24-1.42-1.93-2.03-2.17-.6h0Z"/>
          <path class="cls-14" d="M676.81,287.3c-.46,7.04,2.32,13.77,6.64,19.21,4.62,5.82,11.05,9.89,17.79,12.86,4.01,1.77,8.15,3.21,12.32,4.54,1.38,.44,1.98-1.73,.6-2.17-8.74-2.78-17.71-6.08-24.71-12.2-6.36-5.56-10.95-13.59-10.39-22.24,.09-1.45-2.16-1.44-2.25,0h0Z"/>
          <path class="cls-14" d="M841.66,285.58c-10.86,17.35-27.8,30.71-47.11,37.46-5.41,1.89-10.98,3.26-16.65,4.09-1.43,.21-.82,2.38,.6,2.17,20.67-3.02,40.1-13.39,54.36-28.62,4.02-4.29,7.62-8.98,10.75-13.96,.77-1.23-1.18-2.36-1.94-1.14h0Z"/>
        </g>
      </g>
      <g id="laptop">
        <rect class="cls-18" x="592.83" y="545.18" width="175.66" height="13.56"/>
        <polygon class="cls-18" points="768.49 545.18 807.5 555.87 807.5 569.33 768.49 558.74 768.49 545.18"/>
        <polygon class="cls-12" points="807.5 569.33 606.72 569.33 592.83 558.74 768.49 558.74 807.5 569.33"/>
        <polygon class="cls-18" points="592.83 542.3 559.64 432.16 745.18 432.16 768.49 542.3 592.83 542.3"/>
        <rect class="cls-12" x="592.83" y="542.3" width="175.66" height="2.88"/>
        <polygon class="cls-7" points="745.18 432.16 747.45 430.51 769.99 540.31 768.49 542.3 745.18 432.16"/>
        <polygon class="cls-7" points="559.64 432.16 562.56 430.51 747.45 430.51 745.18 432.16 559.64 432.16"/>
        <polygon class="cls-12" points="768.49 542.3 768.49 545.18 769.99 545.59 769.99 540.31 768.49 542.3"/>
        <g id="laptop__logo">
          <path class="cls-8" d="M660.88,481.64s-1.22-4.8,5.54-7.6c0,0,1.77,6.67-5.54,7.6Z"/>
          <path class="cls-8" d="M661.5,483.85s-16.02-5.26-10.18,14.15c0,0,3.95,6.9,6.61,7.72s3.76-1.75,6.48-1.75,5.05,1.52,7.71-.58,3.66-7.37,3.66-7.37c0,0-9.01-2.97-2.45-12.07,0,0,.01-1.61-4.86-2.32,0,0-3.05,0-6.96,2.22Z"/>
        </g>
      </g>
      <g id="character__leg--left">
        <path id="leg--left" class="cls-15" d="M626.16,552.53c-4.34-.38-19.06-1.12-32.43,8.78-6.91,5.12-10.88,11.17-13,15.12-.66,3.63-1.67,9.11-2.92,15.76-15.31,81.53-31.34,149.41-43.54,197.49-4.39,17.3-10.62,41.27-18.57,69.91,4.67-.76,14.93-1.74,25.92,3.25,8.29,3.77,13.22,9.22,15.95,12.31,10.19,11.51,9.3,19.76,15.11,28.44,4.82,7.2,14.86,15.59,38.33,18.55,12.52-98.99,25.03-197.99,37.55-296.98,38.19,8.18,66.9-9.19,69.56-26.69,2.71-17.87-21.88-35.01-23.05-35.8-9.52-2.88-20.69-5.6-33.3-7.5-13.26-1.99-25.28-2.65-35.61-2.64Z"/>
        <g id="feet--left">
          <path class="cls-10" d="M534.02,861.86c1.81,.76,4.33,1.91,7.2,3.58,3.43,2,13.23,7.86,20.32,18.92,5.18,8.1,8.14,17.77,11.29,20.25,.27,.21,1.46,1.1,1.4,2.22-.05,.99-1.07,1.58-1.87,2.3-1.05,.94-2.23,2.55-2.83,5.49-12.68-5.51-25.35-11.03-38.03-16.54"/>
          <path class="cls-3" d="M493.06,852.95c-9.82,8.74-15.27,22.38-14.25,35.66,17.05,2.38,34.26,4.8,50.41,10.88,.65,.25,1.41,.49,2.01,.15,.49-.27,.72-.84,.92-1.37,2.9-7.81,4.3-16.2,4.08-24.55-.17-6.51-1.57-13.51-6.29-17.89-4.65-4.32-11.38-5.11-17.64-5.69-7.44-.69-15.77-1.11-21.45,3.85"/>
          <path class="cls-1" d="M478.69,888.13l.24,5.99c17.2,2.5,34.18,6.62,50.67,12.31,.38-3.02,.77-6.04,1.15-9.06"/>
          <path class="cls-1" d="M528.46,897.28c7.76,1.88,15.18,5.15,22.56,8.4,6.25,2.76,12.5,5.52,18.75,8.27-.51,1.39-1.02,2.78-1.53,4.18-.16,.43-.34,.89-.69,1.14-.46,.31-1.04,.17-1.56,.02-12.85-3.8-25.53-8.26-38.01-13.37"/>
        </g>
      </g>
      <g id="character__leg--right">
        <path id="leg--right" class="cls-15" d="M723.45,554.37s-40.21,4.67-50.64,20.59-69.85,304.22-69.85,304.22c3.65-1.26,9.26-2.78,16.17-2.91,17.39-.31,35.21,8.38,46.37,21.51,11.68,13.73,8.67,23.61,21.81,31.76,2.8,1.74,11.89,7.39,19.14,3.79,3.02-1.5,4.39-3.79,4.39-3.79l29.42-294.54s68.1-.22,99.73-23.09c0,0,6.89-48.58-116.55-57.54Z"/>
        <g id="feet--right">
          <path class="cls-10" d="M641.11,881.51c1.81,.76,4.33,1.91,7.2,3.58,3.43,2,13.23,7.86,20.32,18.92,5.18,8.1,8.14,17.77,11.29,20.25,.27,.21,1.46,1.1,1.4,2.22-.05,.99-1.07,1.58-1.87,2.3-1.05,.94-2.23,2.55-2.83,5.49-12.68-5.51-25.35-11.03-38.03-16.54"/>
          <path class="cls-3" d="M600.14,872.6c-9.82,8.74-15.27,22.38-14.25,35.66,17.05,2.38,34.26,4.8,50.41,10.88,.65,.25,1.41,.49,2.01,.15,.49-.27,.72-.84,.92-1.37,2.9-7.81,4.3-16.2,4.08-24.55-.17-6.51-1.57-13.51-6.29-17.89-4.65-4.32-11.38-5.11-17.64-5.69-7.44-.69-15.77-1.11-21.45,3.85"/>
          <path class="cls-1" d="M585.77,907.79l.24,5.99c17.2,2.5,34.18,6.62,50.67,12.31,.38-3.02,.77-6.04,1.15-9.06"/>
          <path class="cls-1" d="M635.54,916.93c7.76,1.88,15.18,5.15,22.56,8.4,6.25,2.76,12.5,5.52,18.75,8.27-.51,1.39-1.02,2.78-1.53,4.18-.16,.43-.34,.89-.69,1.14-.46,.31-1.04,.17-1.56,.02-12.85-3.8-25.53-8.26-38.01-13.37"/>
        </g>
      </g>
      <g id="chair__outer-layer">
        <path class="cls-18" d="M672.69,88.98c11.65-12.85,19.29-21.28,32.29-30.48,10.5-7.42,51.07-34.16,104.83-29.29,48.55,4.39,80.41,32.07,95.05,45.15,85.56,76.45,73.68,203.03,70.57,228.71-4.7,38.79-10.32,85.11-45.16,122.1-36.82,39.09-73.39,32.84-102.04,77.81-1.96,3.08-15.68,29.63-25.46,86.71-5.8,33.87-11.6,67.74-17.4,101.6-1.6,9.34-3.03,19.63,1.94,27.7,3.76,6.1,10.49,9.67,17.11,12.43,47.23,19.66,101.55,11.37,150.04-4.92,64.37-21.63,128.38-61.78,151.5-125.63,10.51-29.03,11.66-60.52,11.77-91.39,.26-71.09-4.37-142.2-13.83-212.66-6.28-46.74-14.83-93.67-33.4-137.02-8.81-20.58-34.53-68.15-88.56-107.3-18.38-13.32-80.23-56.75-167.07-52.17-20.95,1.11-71.58,4.43-119.55,38.76-42.13,30.15-63.05,68.56-82.29,111.75-13.96,31.34-28.01,62.95-35.3,96.47-9.8,45.11-8.17,95.44-36.14,132.17-23.44,30.79-63.21,45.28-88.19,74.83-21.24,25.12-29.63,58.51-35.04,90.96-7,42.02-10.09,84.68-9.2,127.27,.08,3.62-2.6,14.58,3.54,21.46,3.88,4.35,10.94,6.98,13.82,4.67,2.2-1.77,1.37-5.95,.68-10.19-1.14-6.99-2.38-16.98-2.72-29.88-4.12-34.75-4.35-82.17,12.39-133.09,10.41-31.68,18.52-56.35,41.81-75.27,12.81-10.41,23.54-13.65,48.5-33.45,14.01-11.11,24.91-19.76,33.45-30.11,21.63-26.2,17.57-50.52,26.76-105.37,4.99-29.82,9.62-57.46,23.42-91.99,21.48-53.8,50.69-88.01,61.89-100.35Z"/>
      </g>
    </g>
  </g>
</svg>