<?xml version="1.0" encoding="UTF-8"?>
<svg id="Layer_2" data-name="Layer 2" xmlns="http://www.w3.org/2000/svg" viewBox="0 0 107.75 187.84" width="100" height="100">
  <defs>
    <style>
      .cls-1 {
        fill: none;
        stroke: #0a5250;
        stroke-miterlimit: 10;
        stroke-width: 3px;
      }

      .cls-2 {
        fill: #0a5250;
        font-family: Tangerine-Bold, Tangerine;
        font-size: 169.38px;
      }

      .cls-3 {
        fill: #0ac4b2;
      }
    </style>
  </defs>
  <g id="Layer_1-2" data-name="Layer 1">
    <g id="Logo">
      <text class="cls-2" transform="translate(0 139.23) scale(.98 1)"><tspan x="0" y="0">C</tspan></text>
      <path id="T_cursor" data-name="T cursor" class="cls-1" d="M73.98,122.2l-13.14,.14c2.16-.02,4.32-.05,6.48-.07l.69-88.64"/>
      <g id="S_wrap" data-name="S wrap">
        <path class="cls-3" d="M65.98,103.15c-.85,.64-1.91,1.33-3.17,1.97-1.19,.61-2.3,1.05-3.27,1.36-13.78,1.94-17.43-6.43-17.43-6.43-3.35-9.29,2.56-12.53,2.56-12.53,.58-1.44-.48-1.08-.48-1.08-4.09,1.33-6.4,5.37-6.4,5.37-3.72,8.32,2.8,13.38,2.8,13.38,4.31,3.98,13.52,3.73,13.52,3.73,1.6,.01,3.76-.14,6.21-.78,2.37-.62,4.26-1.51,5.62-2.28,.01-.91,.03-1.81,.04-2.72Z"/>
        <path class="cls-3" d="M72.44,81.17c-3.45-3.38-6.03-6.38-7.79-8.56-3.08-3.82-3.52-4.96-3.74-6.04-.75-3.69,.69-8.39,3.98-10.36,.56-.34,1.08-.53,1.44-.65,0-.24,.02-.49,.02-.73,0-.35,0-.7,0-1.04-.27,.08-.42,.13-.42,.13-1.41,.55-4.57,2-6.72,5.36-.2,.32-1.07,1.7-1.52,3.35-1.74,6.42,3.74,13.6,5.93,16.46,3.5,4.59,6.11,6.01,8.28,11.1,.72,1.7,1.24,3.43,.92,5.45-.51,3.29-2.91,5.36-3.84,6.08,0,1.04-.02,2.08-.03,3.13,2.14-1.08,3.69-2.27,4.73-3.17,1.47-1.28,2.64-2.32,3.36-4.12,.46-1.15,.57-2.19,.59-2.89,.15-1.57,.23-4.88-1.47-8.49-1.14-2.42-2.66-4.05-3.71-5.01Z"/>
        <path class="cls-3" d="M69.3,53.12c.04,.1,.07,.2,.08,.32,.03,.32,0,.54-.03,.83-.02,.18-.04,.44-.03,.77,5.66-.1,7.61,1.13,8.22,2.44,.76,1.62-.36,3.74,.12,3.92,.43,.16,1.56-1.45,2.12-3.09,.34-.99,.6-1.76,.33-2.55-.53-1.58-2.77-2.09-4.52-2.49-1.31-.3-3.5-.62-6.3-.15Z"/>
      </g>
    </g>
  </g>
</svg>